<svg xmlns="http://www.w3.org/2000/svg" version="1.1" xmlns:xlink="http://www.w3.org/1999/xlink" xmlns:svgjs="http://svgjs.dev/svgjs" width="1000" height="353" viewBox="0 0 1000 353"><g transform="matrix(1,0,0,1,-0.6060606060606233,-0.16308467086548717)"><svg viewBox="0 0 396 140" data-background-color="#302e2e" preserveAspectRatio="xMidYMid meet" height="353" width="1000" xmlns="http://www.w3.org/2000/svg" xmlns:xlink="http://www.w3.org/1999/xlink"><g id="tight-bounds" transform="matrix(1,0,0,1,0.2400000000000091,0.06467947286449771)"><svg viewBox="0 0 395.52 139.870641054271" height="139.870641054271" width="395.52"><g><svg viewBox="0 0 754.5084404794009 266.8223585424557" height="139.870641054271" width="395.52"><g><rect width="18.37145455211215" height="266.8223585424557" x="292.52417296364433" y="0" fill="#00d1cd" opacity="1" stroke-width="0" stroke="transparent" fill-opacity="1" class="rect-r$-0" data-fill-palette-color="secondary" rx="1%" id="r$-0" data-palette-color="#00d1cd"></rect></g><g transform="matrix(1,0,0,1,358.9884404794009,0.6637372103045891)"><svg viewBox="0 0 395.52 265.4948841218465" height="265.4948841218465" width="395.52"><g id="textblocktransform"><svg viewBox="0 0 395.52 265.4948841218465" height="265.4948841218465" width="395.52" id="textblock"><g><svg viewBox="0 0 395.52 203.71750183688462" height="203.71750183688462" width="395.52"><g transform="matrix(1,0,0,1,0,0)"><svg width="395.52" viewBox="3.1 -35.05 68.05000000000001 35.05" height="203.71750183688462" data-palette-color="#ffffff"><path d="M18.1 0L3.1 0 3.1-35 18.1-35Q19.55-35 20.6-33.95 21.65-32.9 21.65-31.4L21.65-31.4 21.65-3.6Q21.65-2.1 20.6-1.05 19.55 0 18.1 0L18.1 0ZM7.75-30.35L7.75-4.65 15.25-4.65Q15.95-4.65 16.5-5.18 17.05-5.7 17.05-6.45L17.05-6.45 17.05-28.55Q17.05-29.3 16.5-29.83 15.95-30.35 15.25-30.35L15.25-30.35 7.75-30.35ZM42.8 0L31.45 0Q30.05 0 28.95-1.05 27.85-2.1 27.85-3.6L27.85-3.6 27.85-31.4Q27.85-32.85 28.95-33.93 30.05-35 31.45-35L31.45-35 42.8-35Q44.35-35 45.37-33.93 46.4-32.85 46.4-31.4L46.4-31.4 46.4-24.9 41.75-23.85 41.75-28.55Q41.75-29.25 41.27-29.8 40.8-30.35 40-30.35L40-30.35 34.3-30.35Q33.6-30.35 33.05-29.8 32.5-29.25 32.5-28.55L32.5-28.55 32.5-6.45Q32.5-5.65 33.05-5.15 33.6-4.65 34.3-4.65L34.3-4.65 40-4.65Q40.8-4.65 41.27-5.15 41.75-5.65 41.75-6.45L41.75-6.45 41.75-10.1 46.4-11.2 46.4-3.6Q46.4-2.1 45.37-1.05 44.35 0 42.8 0L42.8 0ZM67.55 0L52.5 0 52.5-35.05 65.2-35.05Q66.75-35.05 67.8-33.98 68.84-32.9 68.84-31.45L68.84-31.45 68.84-21.5Q69.84-21.15 70.5-20.2 71.15-19.25 71.15-18.15L71.15-18.15 71.15-3.65Q71.15-2.1 70.09-1.05 69.05 0 67.55 0L67.55 0ZM57.2-30.4L57.2-21.7 62.35-21.7Q63.1-21.7 63.65-22.25 64.2-22.8 64.2-23.5L64.2-23.5 64.2-28.6Q64.2-29.35 63.65-29.88 63.1-30.4 62.35-30.4L62.35-30.4 57.2-30.4ZM57.2-17.1L57.2-4.65 64.75-4.65Q65.45-4.65 65.97-5.18 66.5-5.7 66.5-6.5L66.5-6.5 66.5-15.3Q66.5-16 65.97-16.55 65.45-17.1 64.75-17.1L64.75-17.1 57.2-17.1Z" opacity="1" transform="matrix(1,0,0,1,0,0)" fill="#ffffff" class="wordmark-text-0" data-fill-palette-color="primary" id="text-0"></path></svg></g></svg></g><g transform="matrix(1,0,0,1,75.54432,251.810314800529)"><svg viewBox="0 0 244.43135999999998 13.684569321317488" height="13.684569321317488" width="244.43135999999998"><g transform="matrix(1,0,0,1,0,0)"><svg width="244.43135999999998" viewBox="3.1 -35.05 626.87 35.099999999999994" height="13.684569321317488" data-palette-color="#00d1cd"><path d="M18.1 0L3.1 0 3.1-35 18.1-35Q19.55-35 20.6-33.95 21.65-32.9 21.65-31.4L21.65-31.4 21.65-3.6Q21.65-2.1 20.6-1.05 19.55 0 18.1 0L18.1 0ZM7.75-30.35L7.75-4.65 15.25-4.65Q15.95-4.65 16.5-5.18 17.05-5.7 17.05-6.45L17.05-6.45 17.05-28.55Q17.05-29.3 16.5-29.83 15.95-30.35 15.25-30.35L15.25-30.35 7.75-30.35ZM43.95 0L25.35 0 25.35-35 43.95-35 43.95-30.4 30-30.4 30-21.7 39.3-21.7 38.25-17.05 30-17.05 30-4.65 43.95-4.65 43.95 0ZM61.89 0L50.55 0Q49.05 0 47.99-1.05 46.95-2.1 46.95-3.6L46.95-3.6 46.95-11.35 51.59-10.3 51.59-6.45Q51.59-5.7 52.12-5.18 52.65-4.65 53.34-4.65L53.34-4.65 59.05-4.65Q59.8-4.65 60.32-5.18 60.84-5.7 60.84-6.45L60.84-6.45 60.84-15.25Q60.84-16 60.32-16.53 59.8-17.05 59.05-17.05L59.05-17.05 50.55-17.05Q49.05-17.05 47.99-18.1 46.95-19.15 46.95-20.65L46.95-20.65 46.95-31.4Q46.95-32.9 47.99-33.95 49.05-35 50.55-35L50.55-35 61.89-35Q63.4-35 64.44-33.95 65.5-32.9 65.5-31.4L65.5-31.4 65.5-26 60.84-27.1 60.84-28.55Q60.84-29.3 60.32-29.83 59.8-30.35 59.05-30.35L59.05-30.35 53.34-30.35Q52.65-30.35 52.12-29.83 51.59-29.3 51.59-28.55L51.59-28.55 51.59-23.5Q51.59-22.75 52.12-22.23 52.65-21.7 53.34-21.7L53.34-21.7 61.89-21.7Q63.4-21.7 64.44-20.65 65.5-19.6 65.5-18.1L65.5-18.1 65.5-3.6Q65.5-2.1 64.44-1.05 63.4 0 61.89 0L61.89 0ZM72.24 0.05L67.59 0.05 74.64-34.95 79.19-34.95 86.14 0.05 81.49 0.05 80.14-6.5 73.49-6.5 72.24 0.05ZM76.94-23.55L74.39-11.1 79.34-11.1 76.94-23.55ZM93.39 0L88.74 0 88.74-35 103.74-35Q105.19-35 106.24-33.95 107.29-32.9 107.29-31.4L107.29-31.4 107.29-20.65Q107.29-19.15 106.24-18.1 105.19-17.05 103.74-17.05L103.74-17.05 102.69-17.05 107.29 0 102.69 0 98.04-17.05 93.39-17.05 93.39 0ZM93.39-30.35L93.39-21.7 100.89-21.7Q101.59-21.7 102.14-22.23 102.69-22.75 102.69-23.5L102.69-23.5 102.69-28.55Q102.69-29.3 102.14-29.83 101.59-30.35 100.89-30.35L100.89-30.35 93.39-30.35ZM115.94 0L111.29 0 111.29-35 126.29-35Q127.74-35 128.79-33.95 129.84-32.9 129.84-31.4L129.84-31.4 129.84-20.65Q129.84-19.15 128.79-18.1 127.74-17.05 126.29-17.05L126.29-17.05 125.24-17.05 129.84 0 125.24 0 120.59-17.05 115.94-17.05 115.94 0ZM115.94-30.35L115.94-21.7 123.44-21.7Q124.14-21.7 124.69-22.23 125.24-22.75 125.24-23.5L125.24-23.5 125.24-28.55Q125.24-29.3 124.69-29.83 124.14-30.35 123.44-30.35L123.44-30.35 115.94-30.35ZM147.78 0L136.44 0Q135.03 0 133.99-1.05 132.94-2.1 132.94-3.65L132.94-3.65 132.94-31.35Q132.94-32.9 133.99-33.95 135.03-35 136.44-35L136.44-35 147.78-35Q149.39-35 150.41-33.95 151.44-32.9 151.44-31.35L151.44-31.35 151.44-3.65Q151.44-2.1 150.41-1.05 149.39 0 147.78 0L147.78 0ZM139.28-4.6L139.28-4.6 144.94-4.6Q145.78-4.6 146.31-5.15 146.84-5.7 146.84-6.5L146.84-6.5 146.84-28.5Q146.84-29.35 146.31-29.88 145.78-30.4 144.94-30.4L144.94-30.4 139.28-30.4Q138.59-30.4 138.06-29.88 137.53-29.35 137.53-28.5L137.53-28.5 137.53-6.5Q137.53-5.7 138.06-5.15 138.59-4.6 139.28-4.6ZM171.73 0L155.13 0 155.13-35 159.78-35 159.78-4.65 171.73-4.65 171.73 0ZM190.83 0L174.23 0 174.23-35 178.88-35 178.88-4.65 190.83-4.65 190.83 0ZM208.68 0L197.33 0Q195.93 0 194.88-1.05 193.83-2.1 193.83-3.65L193.83-3.65 193.83-31.35Q193.83-32.9 194.88-33.95 195.93-35 197.33-35L197.33-35 208.68-35Q210.28-35 211.3-33.95 212.33-32.9 212.33-31.35L212.33-31.35 212.33-3.65Q212.33-2.1 211.3-1.05 210.28 0 208.68 0L208.68 0ZM200.18-4.6L200.18-4.6 205.83-4.6Q206.68-4.6 207.2-5.15 207.73-5.7 207.73-6.5L207.73-6.5 207.73-28.5Q207.73-29.35 207.2-29.88 206.68-30.4 205.83-30.4L205.83-30.4 200.18-30.4Q199.48-30.4 198.95-29.88 198.43-29.35 198.43-28.5L198.43-28.5 198.43-6.5Q198.43-5.7 198.95-5.15 199.48-4.6 200.18-4.6ZM234.22 0L229.37 0 222.52-35 227.17-35 231.82-11.35 236.47-35 241.12-35 245.72-11.35 250.37-35 255.02-35 248.17 0 243.32 0 238.77-23.2 234.22 0ZM276.32 0L257.72 0 257.72-35 276.32-35 276.32-30.4 262.37-30.4 262.37-21.7 271.67-21.7 270.62-17.05 262.37-17.05 262.37-4.65 276.32-4.65 276.32 0ZM296.97 0L281.92 0 281.92-35.05 294.62-35.05Q296.17-35.05 297.22-33.98 298.27-32.9 298.27-31.45L298.27-31.45 298.27-21.5Q299.27-21.15 299.92-20.2 300.57-19.25 300.57-18.15L300.57-18.15 300.57-3.65Q300.57-2.1 299.52-1.05 298.47 0 296.97 0L296.97 0ZM286.62-30.4L286.62-21.7 291.77-21.7Q292.52-21.7 293.07-22.25 293.62-22.8 293.62-23.5L293.62-23.5 293.62-28.6Q293.62-29.35 293.07-29.88 292.52-30.4 291.77-30.4L291.77-30.4 286.62-30.4ZM286.62-17.1L286.62-4.65 294.17-4.65Q294.87-4.65 295.39-5.18 295.92-5.7 295.92-6.5L295.92-6.5 295.92-15.3Q295.92-16 295.39-16.55 294.87-17.1 294.17-17.1L294.17-17.1 286.62-17.1ZM327.16 0L322.51 0 322.51-17 315.66-35 320.31-35 324.86-23.05 329.36-35 334.01-35 327.16-17 327.16 0ZM362.21 0L347.21 0 347.21-35 362.21-35Q363.66-35 364.71-33.95 365.76-32.9 365.76-31.4L365.76-31.4 365.76-3.6Q365.76-2.1 364.71-1.05 363.66 0 362.21 0L362.21 0ZM351.86-30.35L351.86-4.65 359.36-4.65Q360.06-4.65 360.61-5.18 361.16-5.7 361.16-6.45L361.16-6.45 361.16-28.55Q361.16-29.3 360.61-29.83 360.06-30.35 359.36-30.35L359.36-30.35 351.86-30.35ZM388.06 0L369.46 0 369.46-35 388.06-35 388.06-30.4 374.11-30.4 374.11-21.7 383.41-21.7 382.36-17.05 374.11-17.05 374.11-4.65 388.06-4.65 388.06 0ZM403.9 0.05L399.25 0.05 406.3-34.95 410.85-34.95 417.8 0.05 413.15 0.05 411.8-6.5 405.15-6.5 403.9 0.05ZM408.6-23.55L406.05-11.1 411-11.1 408.6-23.55ZM425.65 0L421 0 421-35 436-35Q437.45-35 438.52-33.95 439.6-32.9 439.6-31.4L439.6-31.4 439.6-20.65Q439.6-19.15 438.52-18.1 437.45-17.05 436-17.05L436-17.05 425.65-17.05 425.65 0ZM425.65-30.35L425.65-21.7 433.15-21.7Q433.9-21.7 434.42-22.23 434.95-22.75 434.95-23.5L434.95-23.5 434.95-28.6Q434.95-29.3 434.42-29.83 433.9-30.35 433.15-30.35L433.15-30.35 425.65-30.35ZM459.4 0L442.8 0 442.8-35 447.45-35 447.45-4.65 459.4-4.65 459.4 0ZM467.04 0L462.39 0 462.39-35 467.04-35 467.04 0ZM485.19 0L473.84 0Q472.44 0 471.34-1.05 470.24-2.1 470.24-3.6L470.24-3.6 470.24-31.4Q470.24-32.85 471.34-33.93 472.44-35 473.84-35L473.84-35 485.19-35Q486.74-35 487.77-33.93 488.79-32.85 488.79-31.4L488.79-31.4 488.79-24.9 484.14-23.85 484.14-28.55Q484.14-29.25 483.67-29.8 483.19-30.35 482.39-30.35L482.39-30.35 476.69-30.35Q475.99-30.35 475.44-29.8 474.89-29.25 474.89-28.55L474.89-28.55 474.89-6.45Q474.89-5.65 475.44-5.15 475.99-4.65 476.69-4.65L476.69-4.65 482.39-4.65Q483.19-4.65 483.67-5.15 484.14-5.65 484.14-6.45L484.14-6.45 484.14-10.1 488.79-11.2 488.79-3.6Q488.79-2.1 487.77-1.05 486.74 0 485.19 0L485.19 0ZM495.64 0.05L490.99 0.05 498.04-34.95 502.59-34.95 509.54 0.05 504.89 0.05 503.54-6.5 496.89-6.5 495.64 0.05ZM500.34-23.55L497.79-11.1 502.74-11.1 500.34-23.55ZM529.19 0L517.84 0Q516.44 0 515.34-1.05 514.24-2.1 514.24-3.6L514.24-3.6 514.24-31.4Q514.24-32.85 515.34-33.93 516.44-35 517.84-35L517.84-35 529.19-35Q530.74-35 531.76-33.93 532.79-32.85 532.79-31.4L532.79-31.4 532.79-24.9 528.14-23.85 528.14-28.55Q528.14-29.25 527.66-29.8 527.19-30.35 526.39-30.35L526.39-30.35 520.69-30.35Q519.99-30.35 519.44-29.8 518.89-29.25 518.89-28.55L518.89-28.55 518.89-6.45Q518.89-5.65 519.44-5.15 519.99-4.65 520.69-4.65L520.69-4.65 526.39-4.65Q527.19-4.65 527.66-5.15 528.14-5.65 528.14-6.45L528.14-6.45 528.14-10.1 532.79-11.2 532.79-3.6Q532.79-2.1 531.76-1.05 530.74 0 529.19 0L529.19 0ZM541.13 0L536.48 0 536.48-35 541.13-35 541.13 0ZM559.68 0L548.33 0Q546.93 0 545.88-1.05 544.83-2.1 544.83-3.65L544.83-3.65 544.83-31.35Q544.83-32.9 545.88-33.95 546.93-35 548.33-35L548.33-35 559.68-35Q561.28-35 562.31-33.95 563.33-32.9 563.33-31.35L563.33-31.35 563.33-3.65Q563.33-2.1 562.31-1.05 561.28 0 559.68 0L559.68 0ZM551.18-4.6L551.18-4.6 556.83-4.6Q557.68-4.6 558.21-5.15 558.73-5.7 558.73-6.5L558.73-6.5 558.73-28.5Q558.73-29.35 558.21-29.88 557.68-30.4 556.83-30.4L556.83-30.4 551.18-30.4Q550.48-30.4 549.96-29.88 549.43-29.35 549.43-28.5L549.43-28.5 549.43-6.5Q549.43-5.7 549.96-5.15 550.48-4.6 551.18-4.6ZM571.68 0L567.03 0 567.03-35 571.68-35 580.98-11.65 580.98-35 585.63-35 585.63 0 580.98 0 571.68-23.35 571.68 0ZM608.42 0L589.82 0 589.82-35 608.42-35 608.42-30.4 594.47-30.4 594.47-21.7 603.77-21.7 602.72-17.05 594.47-17.05 594.47-4.65 608.42-4.65 608.42 0ZM626.37 0L615.02 0Q613.52 0 612.47-1.05 611.42-2.1 611.42-3.6L611.42-3.6 611.42-11.35 616.07-10.3 616.07-6.45Q616.07-5.7 616.6-5.18 617.12-4.65 617.82-4.65L617.82-4.65 623.52-4.65Q624.27-4.65 624.8-5.18 625.32-5.7 625.32-6.45L625.32-6.45 625.32-15.25Q625.32-16 624.8-16.53 624.27-17.05 623.52-17.05L623.52-17.05 615.02-17.05Q613.52-17.05 612.47-18.1 611.42-19.15 611.42-20.65L611.42-20.65 611.42-31.4Q611.42-32.9 612.47-33.95 613.52-35 615.02-35L615.02-35 626.37-35Q627.87-35 628.92-33.95 629.97-32.9 629.97-31.4L629.97-31.4 629.97-26 625.32-27.1 625.32-28.55Q625.32-29.3 624.8-29.83 624.27-30.35 623.52-30.35L623.52-30.35 617.82-30.35Q617.12-30.35 616.6-29.83 616.07-29.3 616.07-28.55L616.07-28.55 616.07-23.5Q616.07-22.75 616.6-22.23 617.12-21.7 617.82-21.7L617.82-21.7 626.37-21.7Q627.87-21.7 628.92-20.65 629.97-19.6 629.97-18.1L629.97-18.1 629.97-3.6Q629.97-2.1 628.92-1.05 627.87 0 626.37 0L626.37 0Z" opacity="1" transform="matrix(1,0,0,1,0,0)" fill="#00d1cd" class="slogan-text-1" data-fill-palette-color="secondary" id="text-1"></path></svg></g></svg></g></svg></g></svg></g><g transform="matrix(1,0,0,1,0,1.382044592328782)"><svg viewBox="0 0 244.43135999999998 264.0582693577981" height="264.0582693577981" width="244.43135999999998"><g><svg xmlns="http://www.w3.org/2000/svg" xmlns:xlink="http://www.w3.org/1999/xlink" version="1.1" x="8" y="0" viewBox="17.3 12.2 65.4 75.6" style="enable-background:new 0 0 100 100;" xml:space="preserve" height="264.0582693577981" width="228.43135999999998" class="icon-icon-0" data-fill-palette-color="accent" id="icon-0"></svg></g></svg></g></svg></g><defs></defs><mask id="fd36afec-6513-45a4-b607-4bcaac0a9e5e"><g id="SvgjsG1164"><svg viewBox="0 0 395.52 139.870641054271" height="139.870641054271" width="395.52"><g><svg viewBox="0 0 754.5084404794009 266.8223585424557" height="139.870641054271" width="395.52"><g></g><g transform="matrix(1,0,0,1,358.9884404794009,0.6637372103045891)"><svg viewBox="0 0 395.52 265.4948841218465" height="265.4948841218465" width="395.52"><g id="SvgjsG1162"><svg viewBox="0 0 395.52 265.4948841218465" height="265.4948841218465" width="395.52" id="SvgjsSvg1161"><g><svg viewBox="0 0 395.52 203.71750183688462" height="203.71750183688462" width="395.52"><g transform="matrix(1,0,0,1,0,0)"><svg width="395.52" viewBox="3.1 -35.05 68.05000000000001 35.05" height="203.71750183688462" data-palette-color="#ffffff"></svg></g></svg></g><g transform="matrix(1,0,0,1,75.54432,251.810314800529)"><svg viewBox="0 0 244.43135999999998 13.684569321317488" height="13.684569321317488" width="244.43135999999998"><g transform="matrix(1,0,0,1,0,0)"><svg width="244.43135999999998" viewBox="3.1 -35.05 626.87 35.099999999999994" height="13.684569321317488" data-palette-color="#00d1cd"></svg></g></svg></g></svg></g></svg></g><g transform="matrix(1,0,0,1,0,1.382044592328782)"><svg viewBox="0 0 244.43135999999998 264.0582693577981" height="264.0582693577981" width="244.43135999999998"><g><svg xmlns="http://www.w3.org/2000/svg" xmlns:xlink="http://www.w3.org/1999/xlink" version="1.1" x="8" y="0" viewBox="17.3 12.2 65.4 75.6" style="enable-background:new 0 0 100 100;" xml:space="preserve" height="264.0582693577981" width="228.43135999999998" class="icon-icon-0" data-fill-palette-color="accent" id="SvgjsSvg1158"><path d="M50 12.2L17.3 31.1v37.8L50 87.8l32.7-18.9V31.1L50 12.2zM32.1 37.4L50 16l17 21.4H32.1zM67.3 39.4L50 70.4l-18.2-31H67.3zM48.1 71l-27.7-4.5 9.8-25.9L48.1 71zM68.9 40.7l10.7 25.9-27.7 4.5L68.9 40.7zM69.2 37.1L52.6 16l27 15.6L69.2 37.1zM29.8 37.1l-9.4-5.5 26.8-15.5L29.8 37.1zM28.8 38.8l-9.5 25V33.3L28.8 38.8zM49 73.2v11.7L20.9 68.7 49 73.2zM51 73.2l28.1-4.5L51 84.9V73.2zM70.3 38.8l10.5-5.6v30.9L70.3 38.8z" fill="white"></path></svg></g></svg></g></svg></g><defs><mask></mask></defs></svg></g></mask><linearGradient x1="0.054" x2="0.941" y1="0.5" y2="0.5" id="28a85d6f-2732-4ef1-a01e-d5ce02ac7725"><stop stop-color="#8c8c8c" offset="0"></stop><stop stop-color="#e3e4e5" offset="0.498"></stop><stop stop-color="#8c8c8c" offset="1"></stop></linearGradient><rect width="395.52000000000004" height="139.870641054271" fill="url(#28a85d6f-2732-4ef1-a01e-d5ce02ac7725)" mask="url(#fd36afec-6513-45a4-b607-4bcaac0a9e5e)" data-fill-palette-color="accent"></rect></svg><rect width="395.52" height="139.870641054271" fill="none" stroke="none" visibility="hidden"></rect></g></svg></g></svg>